<svg width="40" height="40" viewBox="0 0 40 40" fill="none" xmlns="http://www.w3.org/2000/svg">
<path fill-rule="evenodd" clip-rule="evenodd" d="M28.6577 16.342C29.22 16.3434 29.7223 16.6909 29.9175 17.2136C30.1112 17.7371 29.9566 18.3248 29.5296 18.6878L24.9066 22.486L26.8431 28.2464C27.0276 28.7963 26.8321 29.4013 26.3596 29.7426C25.8871 30.0839 25.2462 30.0831 24.7746 29.7406L20.0003 26.2705L15.2251 29.7388C14.753 30.082 14.111 30.0825 13.6383 29.74C13.1656 29.3976 12.9711 28.7911 13.1575 28.241L15.0931 22.4842L10.4802 18.6951C10.0475 18.3352 9.88797 17.7455 10.0809 17.2193C10.2739 16.693 10.7781 16.3425 11.343 16.342H16.7912L18.7359 10.8815C18.9264 10.3557 19.4278 10.0037 19.9914 10C20.555 9.99637 21.0609 10.3419 21.2583 10.8651L23.2095 16.342H28.6577ZM22.9693 22.4724C22.8498 22.1165 22.9631 21.7245 23.2544 21.4853L26.8074 18.5624C26.8821 18.5014 26.9101 18.4005 26.8775 18.3102C26.8448 18.2199 26.7584 18.1597 26.6616 18.1598H22.5585C22.1696 18.1596 21.823 17.9163 21.6939 17.5526L20.2168 13.4009C20.1846 13.3097 20.0978 13.2486 20.0004 13.2486C19.9029 13.2486 19.8161 13.3097 19.784 13.4009L18.3059 17.5526C18.1768 17.9163 17.8303 18.1596 17.4413 18.1598H13.3382C13.2414 18.1597 13.1551 18.2199 13.1224 18.3102C13.0897 18.4005 13.1177 18.5014 13.1924 18.5624L16.7481 21.4817C17.0392 21.7211 17.1521 22.1131 17.0324 22.4687L15.613 26.6923C15.5819 26.786 15.6154 26.889 15.6959 26.9471C15.7765 27.0051 15.8856 27.005 15.966 26.9467L19.4566 24.4083C19.7794 24.1735 20.2185 24.1735 20.5413 24.4083L24.0365 26.9513C24.1171 27.0099 24.2267 27.0101 24.3074 26.9517C24.3881 26.8933 24.4213 26.7898 24.3895 26.6959L22.9693 22.4724Z" fill="#FF5252"/>
</svg>
