<svg width="40" height="40" viewBox="0 0 40 40" fill="none" xmlns="http://www.w3.org/2000/svg">
<path d="M29.9175 17.2136C29.7223 16.6909 29.22 16.3434 28.6577 16.342H23.2095L21.2583 10.8651C21.0609 10.3419 20.555 9.99637 19.9914 10C19.4278 10.0037 18.9264 10.3557 18.7359 10.8815L16.7912 16.342H11.343C10.7781 16.3425 10.2739 16.693 10.0809 17.2193C9.88797 17.7455 10.0475 18.3352 10.4802 18.6951L15.0931 22.4842L13.1575 28.241C12.9711 28.7911 13.1656 29.3976 13.6383 29.74C14.111 30.0825 14.753 30.082 15.2251 29.7388L20.0003 26.2705L24.7746 29.7406C25.2462 30.0831 25.8871 30.0839 26.3596 29.7426C26.8321 29.4013 27.0276 28.7963 26.8431 28.2464L24.9066 22.486L29.5296 18.6878C29.9566 18.3248 30.1112 17.7371 29.9175 17.2136Z" fill="#FF5252"/>
</svg>
