<svg width="40" height="40" viewBox="0 0 40 40" fill="none" xmlns="http://www.w3.org/2000/svg">
<path d="M17.9425 28.9993L17.9038 28L17.9009 28.0001L17.9425 28.9993ZM18.1932 28.9494L18.5401 29.8873L18.5497 29.8837L18.1932 28.9494ZM18.8546 27.1071L19.8355 27.3015L19.8357 27.3006L18.8546 27.1071ZM20.0471 24.4259L20.791 25.0942L20.7981 25.0863L20.8051 25.0782L20.0471 24.4259ZM22.5688 20.7347L23.3599 21.3464L23.3603 21.3459L22.5688 20.7347ZM23.7806 11.7047L23.6838 12.7L23.6935 12.701L23.7033 12.7017L23.7806 11.7047ZM22.5644 11.4825L22.8309 10.5187L22.7981 10.5096L22.7648 10.5028L22.5644 11.4825ZM13.4356 11.0144L13.4348 12.0144L13.4371 12.0144L13.4356 11.0144ZM13.187 13.1365V14.1365C13.6941 14.1365 14.121 13.7568 14.1801 13.2531C14.2393 12.7494 13.912 12.2812 13.4187 12.1637L13.187 13.1365ZM12.5653 13.1365V12.1365H12.5644L12.5653 13.1365ZM12.0803 15.9946L12.3424 16.9596C12.7648 16.8449 13.0635 16.4689 13.0797 16.0315C13.0958 15.5941 12.8257 15.1971 12.4129 15.0515L12.0803 15.9946ZM12.2002 18.8594L12.5022 19.8128C12.9401 19.6741 13.2271 19.255 13.1983 18.7966C13.1694 18.3383 12.832 17.9585 12.3803 17.8758L12.2002 18.8594ZM12.667 21.9001L12.6666 22.9001H12.667V21.9001ZM16.8097 21.9001L16.8862 20.903L16.848 20.9001H16.8097V21.9001ZM16.9974 23.6539L16.0605 23.3043L16.0564 23.3154L16.0525 23.3266L16.9974 23.6539ZM16.8844 28.4822L16.1779 29.1899L16.1919 29.2039L16.2065 29.2173L16.8844 28.4822ZM17.9811 29.9985C18.1722 29.9912 18.3608 29.9536 18.5401 29.8873L17.8463 28.0115C17.8647 28.0047 17.8841 28.0008 17.9038 28L17.9811 29.9985ZM18.5497 29.8837C18.7363 29.8125 18.9487 29.6934 19.1346 29.4763C19.2999 29.2831 19.396 29.0674 19.4613 28.8843C19.5844 28.5392 19.6927 28.0225 19.8355 27.3015L17.8737 26.9127C17.7203 27.6871 17.64 28.0373 17.5776 28.2124C17.5501 28.2893 17.5542 28.247 17.6152 28.1758C17.6967 28.0806 17.7924 28.032 17.8367 28.0151L18.5497 29.8837ZM19.8357 27.3006C19.9854 26.542 20.0834 26.1772 20.2016 25.9125C20.3071 25.6762 20.4478 25.4763 20.791 25.0942L19.3033 23.7576C18.9151 24.1896 18.6087 24.5743 18.3753 25.0972C18.1546 25.5915 18.0221 26.1603 17.8735 26.9136L19.8357 27.3006ZM20.8051 25.0782C21.5457 24.2177 21.9314 23.6017 22.2697 23.0261C22.5968 22.4695 22.8493 22.0067 23.3599 21.3464L21.7777 20.1229C21.1742 20.9034 20.8558 21.4847 20.5454 22.0128C20.2463 22.5218 19.9283 23.031 19.2892 23.7736L20.8051 25.0782ZM23.3603 21.3459C23.3842 21.3149 23.4753 21.2251 23.681 21.0976C23.8736 20.9783 24.1144 20.8577 24.378 20.7457C24.9183 20.5159 25.4498 20.365 25.6958 20.3257L25.3798 18.3508C24.9269 18.4232 24.2345 18.6333 23.5953 18.9052C23.269 19.0439 22.9312 19.2094 22.6274 19.3976C22.3368 19.5777 22.0139 19.8171 21.7774 20.1234L23.3603 21.3459ZM25.4714 10.7058C25.2957 10.6977 24.903 10.7036 24.583 10.7074C24.4101 10.7094 24.2435 10.7112 24.1053 10.7112C24.0362 10.7113 23.9777 10.7109 23.9312 10.71C23.9081 10.7096 23.8898 10.7091 23.8759 10.7085C23.8612 10.708 23.856 10.7076 23.8578 10.7077L23.7033 12.7017C23.8875 12.716 24.2928 12.7109 24.6064 12.7073C24.9764 12.7029 25.2793 12.699 25.3792 12.7037L25.4714 10.7058ZM23.8773 10.7094C23.5856 10.6811 23.0948 10.5917 22.8309 10.5187L22.2979 12.4463C22.6808 12.5522 23.2857 12.6613 23.6838 12.7L23.8773 10.7094ZM22.7648 10.5028C19.6412 9.86377 16.5952 10.0097 13.4341 10.0144L13.4371 12.0144C16.7275 12.0095 19.4961 11.8755 22.364 12.4622L22.7648 10.5028ZM13.4364 10.0144C12.9275 10.014 12.4367 10.2011 12.057 10.5394L13.3877 12.0325C13.4011 12.0206 13.4179 12.0144 13.4348 12.0144L13.4364 10.0144ZM12.057 10.5394C11.6775 10.8777 11.4356 11.3435 11.3764 11.8481L13.3628 12.0808C13.3651 12.0616 13.3742 12.0445 13.3877 12.0325L12.057 10.5394ZM11.3764 11.8481C11.3173 12.3526 11.445 12.8616 11.7357 13.2785L13.3762 12.1344C13.3655 12.1192 13.3606 12.1001 13.3628 12.0808L11.3764 11.8481ZM11.7357 13.2785C12.0264 13.6954 12.4603 13.9914 12.9553 14.1093L13.4187 12.1637C13.4021 12.1597 13.3868 12.1496 13.3762 12.1344L11.7357 13.2785ZM13.187 12.1365H12.5653V14.1365H13.187V12.1365ZM12.5644 12.1365C11.9816 12.137 11.4182 12.3443 10.9738 12.7209L12.2668 14.2467C12.351 14.1754 12.4571 14.1366 12.5663 14.1365L12.5644 12.1365ZM10.9738 12.7209C10.5294 13.0975 10.2326 13.6191 10.1352 14.1931L12.107 14.5277C12.1258 14.4175 12.1826 14.3181 12.2668 14.2467L10.9738 12.7209ZM10.1352 14.1931C10.0378 14.7671 10.1459 15.3573 10.4406 15.8595L12.1655 14.8471C12.1092 14.7511 12.0883 14.638 12.107 14.5277L10.1352 14.1931ZM10.4406 15.8595C10.7354 16.3617 11.1982 16.7439 11.7478 16.9377L12.4129 15.0515C12.3096 15.0151 12.2217 14.9429 12.1655 14.8471L10.4406 15.8595ZM11.8183 15.0295C11.2777 15.1763 10.8037 15.5029 10.4735 15.955L12.0886 17.1346C12.1514 17.0486 12.241 16.9872 12.3424 16.9596L11.8183 15.0295ZM10.4735 15.955C10.1434 16.407 9.97655 16.9578 9.99995 17.5169L11.9982 17.4332C11.9937 17.326 12.0258 17.2206 12.0886 17.1346L10.4735 15.955ZM9.99995 17.5169C10.0233 18.076 10.2356 18.6109 10.6025 19.0337L12.1131 17.723C12.0434 17.6427 12.0027 17.5405 11.9982 17.4332L9.99995 17.5169ZM10.6025 19.0337C10.9694 19.4566 11.4692 19.7423 12.0202 19.8431L12.3803 17.8758C12.2771 17.8569 12.1827 17.8033 12.1131 17.723L10.6025 19.0337ZM11.8982 17.9061C11.3167 18.0904 10.8207 18.477 10.4995 18.9954L12.1996 20.0488C12.2696 19.9358 12.3771 19.8524 12.5022 19.8128L11.8982 17.9061ZM10.4995 18.9954C10.1784 19.5136 10.0529 20.1297 10.1454 20.7322L12.1223 20.4287C12.102 20.2966 12.1296 20.1618 12.1996 20.0488L10.4995 18.9954ZM10.1454 20.7322C10.2379 21.3347 10.5424 21.8848 11.0046 22.2827L12.3093 20.7668C12.2092 20.6806 12.1425 20.5608 12.1223 20.4287L10.1454 20.7322ZM11.0046 22.2827C11.4669 22.6806 12.0564 22.8998 12.6666 22.9001L12.6674 20.9001C12.5365 20.9 12.4094 20.853 12.3093 20.7668L11.0046 22.2827ZM12.667 22.9001H16.8097V20.9001H12.667V22.9001ZM16.7331 22.8971C16.8472 22.9059 16.8851 22.9154 16.8817 22.9145C16.88 22.9141 16.7665 22.886 16.6413 22.7729C16.4948 22.6404 16.4308 22.4825 16.4074 22.3784C16.3917 22.3084 16.3963 22.266 16.3963 22.3399H18.3963C18.3963 22.2659 18.4339 21.6973 17.9826 21.2893C17.7805 21.1065 17.5551 21.0237 17.3912 20.9805C17.2255 20.9368 17.0508 20.9156 16.8862 20.903L16.7331 22.8971ZM16.3963 22.3399C16.3963 22.2676 16.406 22.2228 16.4034 22.237C16.403 22.2397 16.4002 22.2542 16.393 22.2838C16.3788 22.3423 16.3553 22.4276 16.3223 22.5363C16.2567 22.7523 16.1639 23.0273 16.0605 23.3043L17.9343 24.0034C18.0504 23.6923 18.157 23.3777 18.236 23.1174C18.2753 22.9881 18.3104 22.8635 18.3367 22.755C18.3539 22.6842 18.3963 22.5104 18.3963 22.3399H16.3963ZM16.0525 23.3266C15.7916 24.0797 15.4448 25.1035 15.3275 26.1025C15.2126 27.0812 15.2872 28.3006 16.1779 29.1899L17.591 27.7745C17.3565 27.5404 17.2232 27.1087 17.3139 26.3357C17.4023 25.5829 17.6746 24.7542 17.9424 23.9812L16.0525 23.3266ZM16.2065 29.2173C16.5782 29.5601 17.2004 30.031 17.984 29.9984L17.9009 28.0001C17.9434 27.9984 17.9373 28.0127 17.8658 27.9754C17.7927 27.9373 17.6909 27.8656 17.5624 27.7471L16.2065 29.2173Z" fill="#FF5252"/>
<mask id="path-2-inside-1_601_3411" fill="white">
<path d="M29.3731 20.4086C29.4555 20.4089 29.5371 20.3929 29.6133 20.3614C29.6895 20.33 29.7587 20.2838 29.817 20.2254C29.8753 20.1671 29.9214 20.0977 29.9528 20.0214C29.9842 19.945 30.0003 19.8632 30 19.7807V10.8275C30.0003 10.7449 29.9843 10.663 29.9529 10.5867C29.9215 10.5103 29.8753 10.4409 29.8171 10.3826C29.7588 10.3242 29.6896 10.2779 29.6134 10.2465C29.5372 10.215 29.4555 10.199 29.3731 10.1993H25.9256C25.8432 10.199 25.7616 10.2151 25.6855 10.2465C25.6093 10.278 25.5401 10.3242 25.4818 10.3826C25.4236 10.441 25.3774 10.5104 25.3461 10.5867C25.3147 10.6631 25.2987 10.7449 25.299 10.8275V19.7807C25.2987 19.8632 25.3147 19.945 25.3461 20.0213C25.3775 20.0976 25.4237 20.167 25.4819 20.2253C25.5402 20.2837 25.6094 20.3299 25.6855 20.3614C25.7617 20.3928 25.8433 20.4089 25.9256 20.4086H29.3731Z"/>
</mask>
<path d="M29.3731 20.4086L29.3852 17.4086H29.3731V20.4086ZM30 19.7807H27L27 19.7907L30 19.7807ZM30 10.8275L27 10.8165V10.8275H30ZM29.3731 10.1993V13.1994L29.3852 13.1993L29.3731 10.1993ZM25.9256 10.1993L25.9146 13.1993H25.9256V10.1993ZM25.299 10.8275H28.299L28.299 10.8165L25.299 10.8275ZM25.299 19.7807L28.299 19.7907V19.7807H25.299ZM25.9256 20.4086V17.4085L25.9146 17.4086L25.9256 20.4086ZM29.3611 23.4085C29.8403 23.4105 30.3149 23.3173 30.7576 23.1346L28.469 17.5883C28.7594 17.4685 29.0708 17.4073 29.3852 17.4086L29.3611 23.4085ZM30.7576 23.1346C31.2003 22.952 31.6021 22.6835 31.9401 22.345L27.6939 18.1059C27.9153 17.8841 28.1787 17.7081 28.469 17.5883L30.7576 23.1346ZM31.9401 22.345C32.278 22.0065 32.5454 21.6047 32.7271 21.163L27.1785 18.8798C27.2975 18.5907 27.4725 18.3276 27.6939 18.1059L31.9401 22.345ZM32.7271 21.163C32.9089 20.7212 33.0016 20.2481 33 19.7707L27 19.7907C26.999 19.4784 27.0596 19.1688 27.1785 18.8798L32.7271 21.163ZM33 19.7807V10.8275H27V19.7807H33ZM33 10.8385C33.0017 10.3609 32.9092 9.88764 32.7275 9.44577L27.1783 11.7276C27.0594 11.4384 26.9989 11.1288 27 10.8165L33 10.8385ZM32.7275 9.44577C32.5458 9.00389 32.2784 8.60197 31.9405 8.26336L27.6936 12.5018C27.4722 12.2799 27.2972 12.0168 27.1783 11.7276L32.7275 9.44577ZM31.9405 8.26336C31.6026 7.92474 31.2007 7.65614 30.7579 7.47338L28.4688 13.0196C28.1784 12.8997 27.915 12.7236 27.6936 12.5018L31.9405 8.26336ZM30.7579 7.47338C30.3151 7.29064 29.8404 7.19744 29.3611 7.19936L29.3852 13.1993C29.0707 13.2006 28.7592 13.1394 28.4688 13.0196L30.7579 7.47338ZM29.3731 7.19934H25.9256V13.1993H29.3731V7.19934ZM25.9367 7.19936C25.4575 7.19759 24.9829 7.2909 24.5402 7.47373L26.8307 13.0193C26.5404 13.1392 26.229 13.2005 25.9146 13.1993L25.9367 7.19936ZM24.5402 7.47373C24.0976 7.65656 23.6959 7.92519 23.358 8.26379L27.6056 12.5015C27.3843 12.7233 27.121 12.8994 26.8307 13.0193L24.5402 7.47373ZM23.358 8.26379C23.0202 8.60238 22.753 9.00424 22.5714 9.44605L28.1207 11.7274C28.0019 12.0165 27.8269 12.2797 27.6056 12.5015L23.358 8.26379ZM22.5714 9.44605C22.3898 9.88783 22.2972 10.361 22.299 10.8384L28.299 10.8165C28.3001 11.1287 28.2396 11.4383 28.1207 11.7274L22.5714 9.44605ZM22.299 10.8275V19.7807H28.299V10.8275H22.299ZM22.299 19.7707C22.2974 20.248 22.39 20.721 22.5717 21.1627L28.1205 18.88C28.2394 19.169 28.3 19.4784 28.299 19.7907L22.299 19.7707ZM22.5717 21.1627C22.7534 21.6044 23.0207 22.0061 23.3585 22.3445L27.6054 18.1061C27.8266 18.3279 28.0016 18.5909 28.1205 18.88L22.5717 21.1627ZM23.3585 22.3445C23.6963 22.683 24.0979 22.9515 24.5405 23.1343L26.8305 17.5885C27.1208 17.7083 27.384 17.8844 27.6054 18.1061L23.3585 22.3445ZM24.5405 23.1343C24.9831 23.317 25.4576 23.4103 25.9367 23.4085L25.9146 17.4086C26.2289 17.4074 26.5402 17.4686 26.8305 17.5885L24.5405 23.1343ZM25.9256 23.4086H29.3731V17.4086H25.9256V23.4086Z" fill="#FF5252" mask="url(#path-2-inside-1_601_3411)"/>
</svg>
