<svg width="40" height="40" viewBox="0 0 40 40" fill="none" xmlns="http://www.w3.org/2000/svg">
<path d="M17.5294 29.8039C17.6223 29.8003 17.714 29.782 17.8013 29.7498C18.1096 29.6321 18.1971 29.3736 18.5184 27.7524C18.8417 26.1131 19.0184 25.728 19.8113 24.8454C21.3071 23.1074 21.3373 22.4055 22.5453 20.8434C23.1101 20.112 23.9588 19.7821 24.777 19.6264C24.6984 16.8609 24.7709 14.0892 24.7451 11.3222C24.7327 11.2503 24.725 11.1776 24.722 11.1047C24.4232 11.0909 24.1341 11.0744 23.859 11.0531C23.4851 11.0168 22.8911 10.9091 22.5405 10.8122C19.2925 10.1477 16.1404 10.2994 12.6431 10.3046C12.358 10.3044 12.0828 10.4092 11.8698 10.5991C11.6567 10.789 11.5206 11.0508 11.4873 11.3347C11.4541 11.6186 11.5259 11.9049 11.6893 12.1392C11.8527 12.3734 12.0962 12.5394 12.3735 12.6054H11.6995C11.3244 12.6058 10.9614 12.7392 10.6749 12.982C10.3884 13.2248 10.1967 13.5615 10.1337 13.9324C10.0708 14.3033 10.1406 14.6846 10.331 15.0088C10.5213 15.3331 10.8198 15.5794 11.1737 15.7042C10.8257 15.7987 10.5201 16.009 10.3071 16.3007C10.0941 16.5924 9.98625 16.9481 10.0014 17.3093C10.0165 17.6706 10.1536 18.0159 10.3903 18.2887C10.6269 18.5614 10.949 18.7453 11.3037 18.8103C10.9206 18.9316 10.5934 19.1864 10.3814 19.5287C10.1693 19.8709 10.0864 20.2779 10.1475 20.6762C10.2086 21.0744 10.4098 21.4376 10.7147 21.7C11.0196 21.9624 11.408 22.1067 11.8097 22.1069H16.3012C16.9054 22.1533 16.9373 22.2803 16.9373 22.5837C16.9373 22.73 16.7427 23.3706 16.5048 24.0084C15.9317 25.6631 15.1623 28.0253 16.3823 29.2433C16.7448 29.5776 17.1375 29.82 17.5294 29.8037V29.8039Z" fill="#FF5252"/>
<path d="M29.3725 20.4219C29.455 20.4222 29.5367 20.4062 29.6129 20.3747C29.6892 20.3432 29.7585 20.2969 29.8168 20.2385C29.8751 20.18 29.9213 20.1105 29.9528 20.0341C29.9842 19.9576 30.0003 19.8757 30 19.793V10.8249C30.0003 10.7422 29.9843 10.6602 29.9528 10.5837C29.9214 10.5073 29.8752 10.4378 29.8169 10.3793C29.7585 10.3208 29.6892 10.2745 29.613 10.243C29.5367 10.2115 29.455 10.1954 29.3725 10.1958H25.9214C25.8389 10.1955 25.7572 10.2115 25.681 10.243C25.6047 10.2745 25.5355 10.3209 25.4772 10.3794C25.4188 10.4378 25.3727 10.5073 25.3412 10.5838C25.3098 10.6603 25.2938 10.7422 25.2941 10.8249V19.793C25.2938 19.8756 25.3099 19.9576 25.3413 20.034C25.3727 20.1105 25.4189 20.1799 25.4772 20.2384C25.5355 20.2968 25.6048 20.3431 25.681 20.3746C25.7573 20.4061 25.839 20.4222 25.9214 20.4219H29.3725Z" fill="#FF5252"/>
</svg>
